<svg xmlns="http://www.w3.org/2000/svg" viewBox="0 0 234.01 85.24"><defs><style>.cls-1{fill:#eb5f3d;}.cls-2{fill:#364890;}</style></defs><title>Fichier 1</title><g id="Calque_2" data-name="Calque 2"><g id="Calque_1-2" data-name="Calque 1"><path class="cls-1" d="M18.9,37.19A35.38,35.38,0,0,0,27,40.85q3.8,1.18,7.56,2V28.05a15.87,15.87,0,0,1-5.27-2.52A5.51,5.51,0,0,1,27.09,21a6.61,6.61,0,0,1,1.38-4.07A9,9,0,0,1,32.79,14a13.89,13.89,0,0,1,1.81-.51V0A34.85,34.85,0,0,0,24,2.68a22.25,22.25,0,0,0-9.93,8A20.14,20.14,0,0,0,10.8,21.87,18.1,18.1,0,0,0,13,31.18,17.26,17.26,0,0,0,18.9,37.19Z"/><path class="cls-2" d="M66.23,42.07a17.4,17.4,0,0,0-6-5.9,39.72,39.72,0,0,0-8-3.61c-2.92-1-5.88-1.75-8.86-2.4-.88-.18-1.72-.37-2.54-.56V44.39c1.06.27,2.1.55,3.1.84a18.21,18.21,0,0,1,6,2.75,5.35,5.35,0,0,1,2.24,4.53,5.88,5.88,0,0,1-1.42,3.92,9.72,9.72,0,0,1-4.43,2.69,7.32,7.32,0,0,1-3.29.81l3.43,13.33c5.63-.23,4.85-1.16,8.77-2.94a22.93,22.93,0,0,0,10-8,19.42,19.42,0,0,0,3.31-11A17.25,17.25,0,0,0,66.23,42.07Z"/><path class="cls-2" d="M25.32,60a40.77,40.77,0,0,1-8.93-1.89A39,39,0,0,1,5.6,52.71L0,65.13a38.42,38.42,0,0,0,12.67,6,58.43,58.43,0,0,0,12.65,2.17Z"/><path class="cls-2" d="M82.67,56.42a6.68,6.68,0,0,1,3,.67,4.93,4.93,0,0,1,2.08,2,7.36,7.36,0,0,1,.76,3.53v8.07H84.42V63.29a3.61,3.61,0,0,0-.75-2.52,2.71,2.71,0,0,0-2.1-.81,3.62,3.62,0,0,0-1.75.42,3,3,0,0,0-1.2,1.23,4.56,4.56,0,0,0-.43,2.15v7H74.1V51.29h4.09v9.25l-.92-1.18a5.24,5.24,0,0,1,2.17-2.18A6.81,6.81,0,0,1,82.67,56.42Z"/><path class="cls-2" d="M94.24,54.67A2.65,2.65,0,0,1,92.38,54a2.22,2.22,0,0,1,0-3.24,2.65,2.65,0,0,1,1.86-.66,2.76,2.76,0,0,1,1.85.62,2,2,0,0,1,.72,1.58A2.19,2.19,0,0,1,96.1,54,2.57,2.57,0,0,1,94.24,54.67Zm-2,16.06V56.63h4.09v14.1Z"/><path class="cls-2" d="M100.08,75.81V56.63H104v2.88l-.08,4.2.26,4.16v7.94Zm8.31-4.87a6,6,0,0,1-3.09-.79,5.22,5.22,0,0,1-2.09-2.4,9.81,9.81,0,0,1-.74-4.07,10,10,0,0,1,.71-4.09,5,5,0,0,1,2-2.38,6.2,6.2,0,0,1,3.16-.79,7.18,7.18,0,0,1,3.6.91,6.56,6.56,0,0,1,2.51,2.53,8.35,8.35,0,0,1,0,7.66A6.65,6.65,0,0,1,112,70,7.18,7.18,0,0,1,108.39,70.94Zm-.68-3.36a3.48,3.48,0,0,0,1.82-.47,3.41,3.41,0,0,0,1.28-1.35,4.7,4.7,0,0,0,0-4.18,3.46,3.46,0,0,0-1.28-1.32,3.67,3.67,0,0,0-1.82-.46,3.75,3.75,0,0,0-1.84.46,3.41,3.41,0,0,0-1.29,1.32,4.7,4.7,0,0,0,0,4.18,3.36,3.36,0,0,0,1.29,1.35A3.55,3.55,0,0,0,107.71,67.58Z"/><path class="cls-2" d="M118.45,70.73V52.39h7.93a10.4,10.4,0,0,1,4.25.8,6.29,6.29,0,0,1,2.75,2.29,6.36,6.36,0,0,1-2.75,9.38,10.23,10.23,0,0,1-4.25.81h-5.6l1.94-1.91v7Zm4.27-6.5-1.94-2h5.37a4.43,4.43,0,0,0,2.93-.84,3.26,3.26,0,0,0,0-4.7,4.49,4.49,0,0,0-2.93-.82h-5.37l1.94-2Z"/><path class="cls-2" d="M141.29,70.94a6.4,6.4,0,0,1-2.81-.57,4.37,4.37,0,0,1-1.82-1.53,3.91,3.91,0,0,1-.64-2.17,4,4,0,0,1,.62-2.19,3.92,3.92,0,0,1,2-1.48,9.75,9.75,0,0,1,3.51-.53h3.72v2.36h-3.3a3.11,3.11,0,0,0-2,.47,1.51,1.51,0,0,0-.54,1.18,1.48,1.48,0,0,0,.62,1.25,2.75,2.75,0,0,0,1.66.46,3.68,3.68,0,0,0,1.88-.48,2.55,2.55,0,0,0,1.16-1.44l.63,1.92a3.79,3.79,0,0,1-1.62,2A5.77,5.77,0,0,1,141.29,70.94Zm4.29-.21V68l-.26-.61V62.45a2.63,2.63,0,0,0-.8-2,3.52,3.52,0,0,0-2.45-.74,7,7,0,0,0-2.21.36A6.09,6.09,0,0,0,138,61l-1.44-2.85a8,8,0,0,1,2.77-1.27,12.79,12.79,0,0,1,3.3-.44,7.52,7.52,0,0,1,5,1.52,5.94,5.94,0,0,1,1.78,4.74v8.05Z"/><path class="cls-1" d="M160,70.94A8.58,8.58,0,0,1,156,70a7,7,0,0,1-2.78-2.58,7.47,7.47,0,0,1,0-7.5A7.16,7.16,0,0,1,156,57.37a8.47,8.47,0,0,1,4.05-.95,7.79,7.79,0,0,1,3.88.93A5.4,5.4,0,0,1,166.3,60l-3.14,1.73a3.85,3.85,0,0,0-1.39-1.46A3.63,3.63,0,0,0,160,59.8a3.88,3.88,0,0,0-1.86.46,3.47,3.47,0,0,0-1.34,1.32,4.18,4.18,0,0,0-.49,2.1,4.25,4.25,0,0,0,.49,2.11,3.36,3.36,0,0,0,1.34,1.33,3.77,3.77,0,0,0,1.86.46,3.53,3.53,0,0,0,1.78-.46,3.71,3.71,0,0,0,1.39-1.48l3.14,1.73A5.49,5.49,0,0,1,163.9,70,7.69,7.69,0,0,1,160,70.94Z"/><path class="cls-1" d="M168.58,70.73V51.29h4.09V70.73ZM172,67.84l.1-5,6.58-6.21h4.87l-6.31,6.42-2.12,1.76Zm7.12,2.89-4.76-5.92,2.56-3.17L184,70.73Z"/><path class="cls-1" d="M190,70.94a6.39,6.39,0,0,1-2.8-.57,4.37,4.37,0,0,1-1.82-1.53,3.84,3.84,0,0,1-.64-2.17A3.69,3.69,0,0,1,187.26,63a9.75,9.75,0,0,1,3.51-.53h3.72v2.36h-3.3a3.11,3.11,0,0,0-2,.47,1.51,1.51,0,0,0-.54,1.18,1.48,1.48,0,0,0,.62,1.25,2.75,2.75,0,0,0,1.66.46,3.64,3.64,0,0,0,1.87-.48A2.57,2.57,0,0,0,194,66.27l.63,1.92a3.76,3.76,0,0,1-1.63,2A5.75,5.75,0,0,1,190,70.94Zm4.3-.21V68l-.26-.61V62.45a2.63,2.63,0,0,0-.8-2,3.52,3.52,0,0,0-2.45-.74,7,7,0,0,0-2.21.36,6.15,6.15,0,0,0-1.88.95l-1.44-2.85A8.18,8.18,0,0,1,188,56.86a12.68,12.68,0,0,1,3.3-.44,7.47,7.47,0,0,1,5,1.52,5.91,5.91,0,0,1,1.78,4.74v8.05Z"/><path class="cls-1" d="M207.84,70a7.34,7.34,0,0,1-3.51-.85,6.53,6.53,0,0,1-2.54-2.38,6.66,6.66,0,0,1-.94-3.58,6.73,6.73,0,0,1,.94-3.6,6.51,6.51,0,0,1,2.54-2.37,7.45,7.45,0,0,1,3.51-.84,6.68,6.68,0,0,1,3.19.72,5,5,0,0,1,2.11,2.24,8.71,8.71,0,0,1,.76,3.85,8.57,8.57,0,0,1-.76,3.84A5,5,0,0,1,211,69.31,6.56,6.56,0,0,1,207.84,70Zm.66,6a14.75,14.75,0,0,1-3.84-.49,8.39,8.39,0,0,1-3.08-1.45l1.63-3a6.64,6.64,0,0,0,2.26,1.19,8.91,8.91,0,0,0,2.74.43,4.34,4.34,0,0,0,3.14-1,3.8,3.8,0,0,0,1-2.88V66.8l.26-3.57-.08-3.58v-3h3.88V68.37c0,2.6-.68,4.53-2,5.77A8.4,8.4,0,0,1,208.5,76Zm.18-9.3a3.93,3.93,0,0,0,1.91-.45A3.17,3.17,0,0,0,211.9,65a3.37,3.37,0,0,0,.48-1.81,3.41,3.41,0,0,0-.48-1.82,3.15,3.15,0,0,0-1.31-1.19,4.16,4.16,0,0,0-1.91-.42,4.24,4.24,0,0,0-1.9.42,3.27,3.27,0,0,0-1.33,1.19,3.33,3.33,0,0,0-.49,1.82,3.33,3.33,0,0,0,1.82,3A4,4,0,0,0,208.68,66.72Z"/><path class="cls-1" d="M227.2,70.94A9,9,0,0,1,223,70a6.85,6.85,0,0,1-3.79-6.31,7.31,7.31,0,0,1,.95-3.75,6.76,6.76,0,0,1,2.67-2.58,8,8,0,0,1,3.87-.93,7.82,7.82,0,0,1,3.73.89A6.71,6.71,0,0,1,233,59.83a7.43,7.43,0,0,1,1,3.9c0,.16,0,.34,0,.54s0,.39-.06.56H222.49V62.45h9.3l-1.6.71a3.91,3.91,0,0,0-.42-1.92A3.34,3.34,0,0,0,228.54,60a3.91,3.91,0,0,0-3.68,0,3.23,3.23,0,0,0-1.25,1.29,4.13,4.13,0,0,0-.44,2v.63a3.87,3.87,0,0,0,.52,2,3.4,3.4,0,0,0,1.44,1.32,4.83,4.83,0,0,0,2.2.46,5.11,5.11,0,0,0,1.95-.34,4.89,4.89,0,0,0,1.56-1L233,68.66a6.48,6.48,0,0,1-2.44,1.69A9.06,9.06,0,0,1,227.2,70.94Z"/><path class="cls-2" d="M34.59,85.24A17.36,17.36,0,1,1,52,67.88,17.38,17.38,0,0,1,34.59,85.24Zm0-26a8.63,8.63,0,1,0,8.63,8.62A8.63,8.63,0,0,0,34.59,59.26Z"/></g></g></svg>