<svg xmlns="http://www.w3.org/2000/svg" viewBox="0 0 434.54 151.5"><defs><style>.cls-1{fill:#fff;}.cls-2{fill:none;stroke:#fff;stroke-miterlimit:10;stroke-width:5px;}</style></defs><title>Fichier 3</title><g id="Calque_2" data-name="Calque 2"><g id="Calque_1-2" data-name="Calque 1"><path class="cls-1" d="M132.76,142.29a23,23,0,0,1-7.34-1.18,14.89,14.89,0,0,1-5.52-3.05l1.77-3.74a15.42,15.42,0,0,0,4.9,2.78,17.56,17.56,0,0,0,6.19,1.11,13.9,13.9,0,0,0,4.75-.68,5.56,5.56,0,0,0,2.69-1.84,4.4,4.4,0,0,0,.87-2.67,3.63,3.63,0,0,0-1.13-2.78,8.4,8.4,0,0,0-2.93-1.71,33,33,0,0,0-4-1.12c-1.44-.32-2.89-.7-4.34-1.13a19.41,19.41,0,0,1-4-1.66,8,8,0,0,1-2.9-2.71,7.92,7.92,0,0,1-1.11-4.39,8.86,8.86,0,0,1,1.37-4.78,9.51,9.51,0,0,1,4.23-3.5,17.34,17.34,0,0,1,7.27-1.32,22.14,22.14,0,0,1,5.81.77,16.15,16.15,0,0,1,5,2.2l-1.59,3.84a15.36,15.36,0,0,0-4.56-2.08,17.48,17.48,0,0,0-4.65-.65,12.85,12.85,0,0,0-4.66.72,5.69,5.69,0,0,0-2.66,1.92,4.57,4.57,0,0,0-.84,2.69,3.68,3.68,0,0,0,1.13,2.83,8.16,8.16,0,0,0,2.92,1.68c1.2.41,2.52.79,4,1.13s2.89.71,4.35,1.12a18.46,18.46,0,0,1,4,1.64,8.24,8.24,0,0,1,2.91,2.68,7.78,7.78,0,0,1,1.1,4.32,8.6,8.6,0,0,1-1.39,4.73,9.61,9.61,0,0,1-4.3,3.51A17.72,17.72,0,0,1,132.76,142.29Z"/><path class="cls-1" d="M165.69,116.22a12.07,12.07,0,0,1,5.5,1.2,8.67,8.67,0,0,1,3.72,3.65,12.84,12.84,0,0,1,1.34,6.19V141.9h-4.61V127.79a7.76,7.76,0,0,0-1.8-5.57,6.69,6.69,0,0,0-5.06-1.87,9.1,9.1,0,0,0-4.28,1,6.54,6.54,0,0,0-2.8,2.83,9.89,9.89,0,0,0-1,4.66v13.1h-4.6V106.29h4.6v17l-.91-1.83a8.85,8.85,0,0,1,3.84-3.89A12.68,12.68,0,0,1,165.69,116.22Z"/><path class="cls-1" d="M187.1,111.57a3,3,0,0,1-2.23-.87,2.8,2.8,0,0,1-.89-2.11,2.87,2.87,0,0,1,.89-2.16,3,3,0,0,1,2.23-.86,3.12,3.12,0,0,1,2.23.84,2.75,2.75,0,0,1,.89,2.08,3,3,0,0,1-3.12,3.08Zm-2.31,30.33V116.46h4.61V141.9Z"/><path class="cls-1" d="M198.18,151.21V116.46h4.42v6.87l-.29,5.9.48,5.9v16.08Zm13.49-9a11.68,11.68,0,0,1-5.78-1.46,10.64,10.64,0,0,1-4.18-4.35,15,15,0,0,1-1.56-7.2,15.35,15.35,0,0,1,1.52-7.2,10.13,10.13,0,0,1,4.12-4.32,12,12,0,0,1,5.88-1.44,13.3,13.3,0,0,1,6.63,1.63,12,12,0,0,1,4.56,4.54,13.33,13.33,0,0,1,1.68,6.79,13.47,13.47,0,0,1-1.68,6.82,12,12,0,0,1-4.56,4.56A13.19,13.19,0,0,1,211.67,142.19Zm-.38-4a8.71,8.71,0,0,0,4.39-1.11,7.87,7.87,0,0,0,3.07-3.14,9.65,9.65,0,0,0,1.13-4.73,9.49,9.49,0,0,0-1.13-4.73,8,8,0,0,0-3.07-3.09,9.16,9.16,0,0,0-8.74,0,8.07,8.07,0,0,0-3.07,3.09,9.48,9.48,0,0,0-1.12,4.73,9.64,9.64,0,0,0,1.12,4.73,7.93,7.93,0,0,0,3.07,3.14A8.64,8.64,0,0,0,211.29,138.16Z"/><path class="cls-1" d="M231.59,141.9V108.3H244.7a18.54,18.54,0,0,1,7.53,1.39,10.7,10.7,0,0,1,4.8,4,12.56,12.56,0,0,1,0,12.55,10.87,10.87,0,0,1-4.8,4,18.2,18.2,0,0,1-7.53,1.42H234.23l2.16-2.26V141.9Zm4.8-12-2.16-2.4h10.32q4.6,0,7-2a7.72,7.72,0,0,0,0-11.13c-1.59-1.32-3.92-2-7-2H234.23l2.16-2.4Z"/><path class="cls-1" d="M272.3,142.19a12,12,0,0,1-5-1,7.64,7.64,0,0,1-3.29-2.66,6.75,6.75,0,0,1-1.15-3.87,7.33,7.33,0,0,1,1-3.74,6.83,6.83,0,0,1,3.22-2.69,14.88,14.88,0,0,1,6-1h8.07v3.31H273.3c-2.3,0-3.85.39-4.65,1.16a3.69,3.69,0,0,0-1.2,2.78,3.55,3.55,0,0,0,1.49,3,6.68,6.68,0,0,0,4.12,1.13,8.83,8.83,0,0,0,4.54-1.15,6.57,6.57,0,0,0,2.81-3.36l.91,3.16a7.15,7.15,0,0,1-3.22,3.58A11.52,11.52,0,0,1,272.3,142.19Zm8.35-.29v-5.37l-.24-1v-9.17a6,6,0,0,0-1.71-4.54,7.2,7.2,0,0,0-5.11-1.6,13.34,13.34,0,0,0-4.41.74,11.48,11.48,0,0,0-3.65,2l-1.92-3.45a13.83,13.83,0,0,1,4.73-2.43,19.71,19.71,0,0,1,5.78-.84q5.24,0,8.06,2.55t2.84,7.77V141.9Z"/><path class="cls-1" d="M304.65,142.19a14.12,14.12,0,0,1-6.94-1.68,12.37,12.37,0,0,1-4.77-4.61,13.92,13.92,0,0,1,0-13.44,12.15,12.15,0,0,1,4.77-4.58,14.22,14.22,0,0,1,6.94-1.66,13.56,13.56,0,0,1,6.17,1.37,9.74,9.74,0,0,1,4.2,4.06l-3.51,2.25a7.78,7.78,0,0,0-3.05-2.76,8.65,8.65,0,0,0-3.86-.89,9,9,0,0,0-4.47,1.11,8.1,8.1,0,0,0-3.11,3.09,10.26,10.26,0,0,0,0,9.48,8,8,0,0,0,3.11,3.12,9,9,0,0,0,4.47,1.11,8.65,8.65,0,0,0,3.86-.89,7.78,7.78,0,0,0,3.05-2.76l3.51,2.21a10.12,10.12,0,0,1-4.2,4.05A13.08,13.08,0,0,1,304.65,142.19Z"/><path class="cls-1" d="M320.63,141.9V106.29h4.61V141.9Zm3.75-6.14.09-5.91,14.64-13.39h5.57l-11.23,11-2.5,2.11Zm15.69,6.14-10-12.38,3-3.7,12.68,16.08Z"/><path class="cls-1" d="M357.16,142.19a12,12,0,0,1-5-1,7.69,7.69,0,0,1-3.29-2.66,6.83,6.83,0,0,1-1.15-3.87,7.24,7.24,0,0,1,1-3.74,6.75,6.75,0,0,1,3.21-2.69,14.94,14.94,0,0,1,6-1H366v3.31h-7.87c-2.31,0-3.86.39-4.66,1.16a3.69,3.69,0,0,0-1.2,2.78,3.58,3.58,0,0,0,1.49,3,6.71,6.71,0,0,0,4.13,1.13,8.76,8.76,0,0,0,4.53-1.15,6.53,6.53,0,0,0,2.81-3.36l.91,3.16a7.13,7.13,0,0,1-3.21,3.58A11.56,11.56,0,0,1,357.16,142.19Zm8.35-.29v-5.37l-.24-1v-9.17a6,6,0,0,0-1.7-4.54,7.21,7.21,0,0,0-5.11-1.6A13.36,13.36,0,0,0,354,121a11.48,11.48,0,0,0-3.65,2l-1.92-3.45a13.83,13.83,0,0,1,4.73-2.43,19.76,19.76,0,0,1,5.78-.84q5.24,0,8.07,2.55t2.83,7.77V141.9Z"/><path class="cls-1" d="M389,140.85a13.75,13.75,0,0,1-6.6-1.56,11.88,11.88,0,0,1-4.6-4.35,13,13,0,0,1,0-12.89,11.73,11.73,0,0,1,4.6-4.29,13.85,13.85,0,0,1,6.6-1.54,13.37,13.37,0,0,1,6,1.32,10,10,0,0,1,4.29,4.06,15.53,15.53,0,0,1,0,13.77,10.34,10.34,0,0,1-4.29,4.11A13,13,0,0,1,389,140.85Zm.58,10.65a23.72,23.72,0,0,1-6.79-1,14,14,0,0,1-5.35-2.81l2.2-3.55a13.14,13.14,0,0,0,4.37,2.42,16.71,16.71,0,0,0,5.43.89q4.5,0,6.62-2.11t2.11-6.43v-5.38l.48-5-.24-5.09v-7h4.37v22q0,6.72-3.36,9.88T389.56,151.5Zm-.05-14.69a9.41,9.41,0,0,0,4.51-1.05,8,8,0,0,0,3.1-2.93,8.82,8.82,0,0,0,0-8.64,7.67,7.67,0,0,0-3.1-2.9,9.53,9.53,0,0,0-4.51-1,9.67,9.67,0,0,0-4.53,1,7.6,7.6,0,0,0-3.12,2.9,8.82,8.82,0,0,0,0,8.64,7.87,7.87,0,0,0,3.12,2.93A9.55,9.55,0,0,0,389.51,136.81Z"/><path class="cls-1" d="M422.87,142.19a14.84,14.84,0,0,1-7.18-1.68,12.18,12.18,0,0,1-4.8-4.61,13.16,13.16,0,0,1-1.7-6.72,13.34,13.34,0,0,1,1.66-6.72,11.88,11.88,0,0,1,4.56-4.58,13.82,13.82,0,0,1,13.08,0,11.61,11.61,0,0,1,4.44,4.59,14.2,14.2,0,0,1,1.61,6.89c0,.19,0,.41,0,.67s0,.49-.07.72H412.79v-3.31H432l-1.87,1.15a8.63,8.63,0,0,0-1-4.37,7.7,7.7,0,0,0-2.91-3,9,9,0,0,0-8.56,0,7.6,7.6,0,0,0-2.93,3,9.11,9.11,0,0,0-1.06,4.44v.77a8.71,8.71,0,0,0,1.18,4.54,8,8,0,0,0,3.29,3.09,10.22,10.22,0,0,0,4.84,1.11,10.64,10.64,0,0,0,4.11-.77,9,9,0,0,0,3.24-2.3l2.54,3a11,11,0,0,1-4.29,3.07A14.9,14.9,0,0,1,422.87,142.19Z"/><path class="cls-2" d="M58.26,68.15c-32.11-1.83-57-18-55.71-36S31,.84,63.13,2.67"/><path class="cls-2" d="M20.7,71c40.68,6.18,70.78,25.67,67.22,43.52S48.49,141.85,7.81,135.66"/><path class="cls-2" d="M24.1,80.61c31.76,4.83,55.41,19.27,52.82,32.26s-30.43,19.6-62.2,14.77"/><line class="cls-2" x1="36.49" y1="29.26" x2="106.27" y2="29.26"/><line class="cls-2" x1="36.49" y1="45.13" x2="88.21" y2="45.13"/></g></g></svg>